<?xml version="1.0" encoding="UTF-8" standalone="no"?>
<!DOCTYPE svg PUBLIC "-//W3C//DTD SVG 1.1//EN"
 "http://www.w3.org/Graphics/SVG/1.1/DTD/svg11.dtd">
<!-- Generated by graphviz version 2.40.1 (20161225.0304)
 -->
<!-- Title: dependencies Pages: 1 -->
<svg width="731pt" height="284pt"
 viewBox="0.00 0.00 731.00 284.00" xmlns="http://www.w3.org/2000/svg" xmlns:xlink="http://www.w3.org/1999/xlink">
<g id="graph0" class="graph" transform="scale(1 1) rotate(0) translate(4 280)">
<title>dependencies</title>
<polygon fill="#ffffff" stroke="transparent" points="-4,4 -4,-280 727,-280 727,4 -4,4"/>
<text text-anchor="start" x="340.5091" y="-42.4" font-family="sans-serif" font-weight="bold" font-size="14.00" fill="#000000">Legend</text>
<polygon fill="#ffffb3" stroke="transparent" points="127.5,-10 127.5,-30 147.5,-30 147.5,-10 127.5,-10"/>
<text text-anchor="start" x="151.129" y="-15.4" font-family="sans-serif" font-size="14.00" fill="#000000"> &#160;Declarations</text>
<polygon fill="#8dd3c7" stroke="transparent" points="240.5,-10 240.5,-30 260.5,-30 260.5,-10 240.5,-10"/>
<text text-anchor="start" x="264.2251" y="-15.4" font-family="sans-serif" font-size="14.00" fill="#000000"> &#160;Module</text>
<polygon fill="#80b1d3" stroke="transparent" points="326.5,-10 326.5,-30 346.5,-30 346.5,-10 326.5,-10"/>
<text text-anchor="start" x="350.2812" y="-15.4" font-family="sans-serif" font-size="14.00" fill="#000000"> &#160;Bootstrap</text>
<polygon fill="#fdb462" stroke="transparent" points="423.5,-10 423.5,-30 443.5,-30 443.5,-10 423.5,-10"/>
<text text-anchor="start" x="447.1732" y="-15.4" font-family="sans-serif" font-size="14.00" fill="#000000"> &#160;Providers</text>
<polygon fill="#fb8072" stroke="transparent" points="519.5,-10 519.5,-30 539.5,-30 539.5,-10 519.5,-10"/>
<text text-anchor="start" x="543.2258" y="-15.4" font-family="sans-serif" font-size="14.00" fill="#000000"> &#160;Exports</text>
<g id="clust1" class="cluster">
<title>cluster_AppModule</title>
<polygon fill="none" stroke="#000000" stroke-dasharray="1,5" points="8,-70 8,-268 715,-268 715,-70 8,-70"/>
</g>
<g id="clust2" class="cluster">
<title>cluster_AppModule_declarations</title>
<polygon fill="none" stroke="#000000" points="256,-78 256,-130 707,-130 707,-78 256,-78"/>
</g>
<g id="clust8" class="cluster">
<title>cluster_AppModule_bootstrap</title>
<polygon fill="none" stroke="#000000" points="355,-208 355,-260 479,-260 479,-208 355,-208"/>
</g>
<g id="clust9" class="cluster">
<title>cluster_AppModule_providers</title>
<polygon fill="none" stroke="#000000" points="16,-78 16,-130 248,-130 248,-78 16,-78"/>
</g>
<!-- AppComponent -->
<g id="node1" class="node">
<title>AppComponent</title>
<polygon fill="#ffffb3" stroke="#000000" points="698.9399,-122 593.0601,-122 593.0601,-86 698.9399,-86 698.9399,-122"/>
<text text-anchor="middle" x="646" y="-99.8" font-family="Times,serif" font-size="14.00" fill="#000000">AppComponent</text>
</g>
<!-- AppModule -->
<g id="node4" class="node">
<title>AppModule</title>
<polygon fill="#8dd3c7" stroke="#000000" points="458.6571,-187 455.6571,-191 434.6571,-191 431.6571,-187 375.3429,-187 375.3429,-151 458.6571,-151 458.6571,-187"/>
<text text-anchor="middle" x="417" y="-164.8" font-family="Times,serif" font-size="14.00" fill="#000000">AppModule</text>
</g>
<!-- AppComponent&#45;&gt;AppModule -->
<g id="edge1" class="edge">
<title>AppComponent&#45;&gt;AppModule</title>
<path fill="none" stroke="#000000" d="M646,-122.1061C646,-141.3391 646,-169 646,-169 646,-169 468.7359,-169 468.7359,-169"/>
<polygon fill="#000000" stroke="#000000" points="468.7359,-165.5001 458.7359,-169 468.7358,-172.5001 468.7359,-165.5001"/>
</g>
<!-- RepositoriesComponent -->
<g id="node2" class="node">
<title>RepositoriesComponent</title>
<polygon fill="#ffffb3" stroke="#000000" points="575.8201,-122 424.1799,-122 424.1799,-86 575.8201,-86 575.8201,-122"/>
<text text-anchor="middle" x="500" y="-99.8" font-family="Times,serif" font-size="14.00" fill="#000000">RepositoriesComponent</text>
</g>
<!-- RepositoriesComponent&#45;&gt;AppModule -->
<g id="edge2" class="edge">
<title>RepositoriesComponent&#45;&gt;AppModule</title>
<path fill="none" stroke="#000000" d="M441.5842,-122.1061C441.5842,-122.1061 441.5842,-140.991 441.5842,-140.991"/>
<polygon fill="#000000" stroke="#000000" points="438.0842,-140.9909 441.5842,-150.991 445.0842,-140.991 438.0842,-140.9909"/>
</g>
<!-- RepositoryComponent -->
<g id="node3" class="node">
<title>RepositoryComponent</title>
<polygon fill="#ffffb3" stroke="#000000" points="406.2702,-122 263.7298,-122 263.7298,-86 406.2702,-86 406.2702,-122"/>
<text text-anchor="middle" x="335" y="-99.8" font-family="Times,serif" font-size="14.00" fill="#000000">RepositoryComponent</text>
</g>
<!-- RepositoryComponent&#45;&gt;AppModule -->
<g id="edge3" class="edge">
<title>RepositoryComponent&#45;&gt;AppModule</title>
<path fill="none" stroke="#000000" d="M390.7784,-122.1061C390.7784,-122.1061 390.7784,-140.991 390.7784,-140.991"/>
<polygon fill="#000000" stroke="#000000" points="387.2785,-140.9909 390.7784,-150.991 394.2785,-140.991 387.2785,-140.9909"/>
</g>
<!-- AppComponent  -->
<g id="node5" class="node">
<title>AppComponent </title>
<polygon fill="#80b1d3" stroke="#000000" points="471.439,-252 362.561,-252 362.561,-216 471.439,-216 471.439,-252"/>
<text text-anchor="middle" x="417" y="-229.8" font-family="Times,serif" font-size="14.00" fill="#000000">AppComponent </text>
</g>
<!-- AppModule&#45;&gt;AppComponent  -->
<g id="edge4" class="edge">
<title>AppModule&#45;&gt;AppComponent </title>
<path fill="none" stroke="#000000" stroke-dasharray="1,5" d="M417,-187.1061C417,-187.1061 417,-205.991 417,-205.991"/>
<polygon fill="#000000" stroke="#000000" points="413.5001,-205.9909 417,-215.991 420.5001,-205.991 413.5001,-205.9909"/>
</g>
<!-- RepositoriesStateService -->
<g id="node6" class="node">
<title>RepositoriesStateService</title>
<ellipse fill="#fdb462" stroke="#000000" cx="132" cy="-104" rx="107.654" ry="18"/>
<text text-anchor="middle" x="132" y="-99.8" font-family="Times,serif" font-size="14.00" fill="#000000">RepositoriesStateService</text>
</g>
<!-- RepositoriesStateService&#45;&gt;AppModule -->
<g id="edge5" class="edge">
<title>RepositoriesStateService&#45;&gt;AppModule</title>
<path fill="none" stroke="#000000" d="M132,-122.1061C132,-141.3391 132,-169 132,-169 132,-169 365.2533,-169 365.2533,-169"/>
<polygon fill="#000000" stroke="#000000" points="365.2534,-172.5001 375.2533,-169 365.2533,-165.5001 365.2534,-172.5001"/>
</g>
</g>
</svg>
